<svg width="50" height="50" viewBox="0 0 50 50" fill="none" xmlns="http://www.w3.org/2000/svg">
<path d="M36.5972 11.9889C36.9877 11.5985 37.6208 11.5985 38.0112 11.989V11.989C38.4017 12.3794 38.4017 13.0125 38.0112 13.403L13.4027 38.0095C13.0125 38.3997 12.3799 38.3998 11.9895 38.0098V38.0098C11.5989 37.6195 11.5988 36.9864 11.9893 36.596L36.5972 11.9889Z" fill="#86868B"/>
<path d="M11.989 11.9897C12.3796 11.5989 13.013 11.5988 13.4037 11.9894L38.0112 36.595C38.4017 36.9855 38.4018 37.6186 38.0115 38.0093V38.0093C37.6209 38.4001 36.9874 38.4002 36.5967 38.0095L11.9893 13.404C11.5988 13.0135 11.5986 12.3804 11.989 11.9897V11.9897Z" fill="#86868B"/>
</svg>
