<svg width="15" height="18" viewBox="0 0 15 18" fill="none" xmlns="http://www.w3.org/2000/svg">
<path d="M12.4979 17.0896C11.5287 18.0292 10.4705 17.8808 9.4518 17.4358C8.37381 16.9809 7.38482 16.9611 6.24749 17.4358C4.82335 18.049 4.07173 17.8709 3.2212 17.0896C-1.60504 12.1151 -0.892975 4.53944 4.586 4.26252C5.92113 4.33175 6.85077 4.99437 7.63207 5.05371C8.79907 4.81635 9.91662 4.13395 11.1627 4.22296C12.6561 4.34164 13.7835 4.93503 14.5253 6.00313C11.4397 7.85253 12.1715 11.9173 15 13.0546C14.4363 14.5381 13.7044 16.0117 12.488 17.0995L12.4979 17.0896V17.0896ZM7.53317 4.20318C7.38482 1.99775 9.17488 0.178017 11.232 0C11.5188 2.55158 8.91775 4.45043 7.53317 4.20318Z" fill="white"/>
</svg>
