<svg width="14" height="14" viewBox="0 0 14 14" fill="none" xmlns="http://www.w3.org/2000/svg">
<path d="M13.1467 12.3741L9.64666 8.87408C10.5284 7.79425 10.9615 6.41696 10.8566 5.02685C10.7517 3.63673 10.1167 2.34006 9.08287 1.40482C8.04907 0.469575 6.69547 -0.0327502 5.30183 0.00165776C3.90819 0.0360657 2.58103 0.604578 1.59464 1.5897C0.608254 2.57482 0.0380354 3.90125 0.00183498 5.29484C-0.0343654 6.68844 0.466219 8.04268 1.40013 9.07768C2.33405 10.1127 3.6299 10.7493 5.01988 10.856C6.40985 10.9628 7.7877 10.5314 8.86866 9.65108L12.3687 13.1511C12.4197 13.2022 12.4804 13.2427 12.5471 13.2703C12.6139 13.298 12.6854 13.3122 12.7577 13.3122C12.8299 13.3122 12.9014 13.298 12.9682 13.2703C13.0349 13.2427 13.0956 13.2022 13.1467 13.1511C13.1977 13.1 13.2383 13.0394 13.2659 12.9726C13.2936 12.9059 13.3078 12.8343 13.3078 12.7621C13.3078 12.6898 13.2936 12.6183 13.2659 12.5516C13.2383 12.4848 13.1977 12.4242 13.1467 12.3731V12.3741ZM1.12567 5.44908C1.12586 4.59491 1.37934 3.75997 1.85403 3.04985C2.32873 2.33972 3.00334 1.7863 3.79255 1.45956C4.58176 1.13282 5.45014 1.04743 6.28787 1.21419C7.12561 1.38096 7.89509 1.79238 8.49901 2.39644C9.10294 3.00051 9.51418 3.77008 9.68075 4.60786C9.84732 5.44563 9.76173 6.31399 9.4348 7.10312C9.10788 7.89226 8.5543 8.56674 7.84407 9.04127C7.13383 9.5158 6.29884 9.76908 5.44467 9.76908C4.29935 9.76802 3.20126 9.31251 2.39149 8.50255C1.58172 7.6926 1.12646 6.5944 1.12567 5.44908Z" fill="#F5F5F7"/>
</svg>
